Coordinates
version=1
nRows=14
nColumns=24
inDegrees=yes

Units are S.I. units (second, meters, Newtons, ...)
Angles are in degrees.

endheader
time	pelvis_tilt	pelvis_list	pelvis_rotation	pelvis_tx	pelvis_ty	pelvis_tz	hip_flexion_r	hip_adduction_r	hip_rotation_r	knee_angle_r	ankle_angle_r	subtalar_angle_r	mtp_angle_r	hip_flexion_l	hip_adduction_l	hip_rotation_l	knee_angle_l	ankle_angle_l	subtalar_angle_l	mtp_angle_l	lumbar_extension	lumbar_bending	lumbar_rotation
      0.99133333	     -6.29723251	     -2.97834932	     -2.42602547	     -0.10833470	      1.01298426	      0.29643910	     -4.18864658	      8.01066637	      1.84903568	    -11.78552055	     12.50626812	     -3.45802354	      3.50475385	     25.19756658	     -3.08968396	     -5.91746340	      3.74121622	      4.39564400	     -0.98461833	     -1.77920685	      1.31439699	      1.97326907	      4.56032101
      0.99550000	     -6.41079965	     -2.90930645	     -2.52366521	     -0.10239574	      1.01226763	      0.29611956	     -4.12899285	      7.88898682	      1.81131003	    -12.38548111	     12.65394169	     -3.22847373	      3.50664021	     25.27081036	     -2.98079365	     -5.62689113	      3.64607281	      4.33323262	     -0.89309948	     -1.58661298	      1.49346280	      1.91307447	      4.66028103
      0.99966667	     -6.42409199	     -2.83221532	     -2.58045728	     -0.09644467	      1.01172663	      0.29577580	     -4.19138841	      7.77153298	      1.84390413	    -12.94368911	     12.69672422	     -3.26941461	      3.51172933	     25.24570198	     -2.84991137	     -5.33686070	      3.47695423	      4.23284443	     -0.76559284	     -1.51809999	      1.51759440	      1.82799704	      4.68892188
      1.00383333	     -6.50455714	     -2.73055181	     -2.67046455	     -0.09044660	      1.01111297	      0.29545239	     -4.12788016	      7.61786954	      1.82225619	    -13.62183325	     12.82129369	     -3.06302610	      3.54736147	     25.28030574	     -2.70891848	     -5.06748899	      3.25994387	      4.07468080	     -0.73323222	     -1.25548697	      1.67523061	      1.70987882	      4.80397548
      1.00800000	     -6.50231228	     -2.63266932	     -2.71663716	     -0.08447197	      1.01064247	      0.29508109	     -4.15740872	      7.48179287	      1.85020621	    -14.27140509	     12.80181008	     -3.14834744	      3.56000185	     25.25290836	     -2.55543043	     -4.81524285	      2.94536081	      3.92573128	     -0.64851837	     -1.18344233	      1.66824484	      1.61367352	      4.82545771
      1.01216667	     -6.53630585	     -2.51621463	     -2.78243667	     -0.07843835	      1.01013070	      0.29471837	     -4.10804352	      7.31837740	      1.84458651	    -15.00861219	     12.81843809	     -3.06525413	      4.44563517	     25.23964419	     -2.39116261	     -4.52884552	      2.63290367	      3.57820731	     -0.77959499	      2.73886441	      1.75825259	      1.48101655	      4.86868985
      1.01633333	     -6.51896033	     -2.39253950	     -2.83072338	     -0.07241683	      1.00973184	      0.29435081	     -4.09970003	      7.15731787	      1.87139554	    -15.76172818	     12.74949975	     -3.16171014	      4.45369286	     25.19863020	     -2.21598196	     -4.33527810	      2.21426308	      3.36603761	     -0.71592246	      2.74892380	      1.75454742	      1.33772039	      4.91574504
      1.02050000	     -6.52312817	     -2.25060057	     -2.89545532	     -0.06635053	      1.00932524	      0.29399916	     -4.03253083	      6.97382423	      1.88968497	    -16.59027221	     12.69532652	     -3.18308636	      4.48870356	     25.16281474	     -2.03010059	     -4.13971741	      1.79010492	      3.08075454	     -0.74270682	      2.78876480	      1.83030041	      1.14038359	      5.00423928
      1.02466667	     -6.49663095	     -2.11261283	     -2.93036021	     -0.06030818	      1.00899283	      0.29357723	     -3.97857764	      6.79744468	      1.89291219	    -17.44122005	     12.56611038	     -3.27220541	      4.51252955	     25.12312803	     -1.83535437	     -3.95975851	      1.27790794	      2.82363358	     -0.77341513	      2.81556076	      1.79673860	      1.01232146	      5.04748443
      1.02883333	     -6.53537433	     -1.97182004	     -2.99052471	     -0.05424849	      1.00857036	      0.29318578	     -3.79942150	      6.61302096	      1.86113911	    -18.40850385	     12.49277360	     -3.19091972	      4.68325865	     25.11513290	     -1.64695898	     -3.64535323	      0.81767786	      2.39003678	     -1.12923832	      2.98790961	      1.91154216	      0.84218960	      5.19633600
      1.03300000	     -6.46783363	     -1.78807279	     -3.02531954	     -0.04811765	      1.00836803	      0.29278194	     -3.73562977	      6.38595502	      1.84080500	    -19.35437258	     12.26009414	     -3.30931177	      4.78182869	     25.00015610	     -1.40886743	     -3.47880579	      0.31602230	      2.03554977	     -1.23196798	      3.08031190	      1.87551319	      0.59663751	      5.21687910
      1.03716667	     -6.42746188	     -1.63128598	     -3.05564099	     -0.04203418	      1.00812311	      0.29231818	     -3.59068887	      6.17871734	      1.74659635	    -20.39586313	     12.04855786	     -3.33128984	      5.19512816	     24.90700729	     -1.18780692	     -3.14409145	     -0.18040936	      1.58126730	     -1.73128728	      3.42292039	      1.87939352	      0.43910404	      5.31392851
      1.04133333	     -6.35253598	     -1.46241279	     -3.07669170	     -0.03593025	      1.00798282	      0.29188334	     -3.47407153	      5.96766004	      1.69392197	    -21.43736852	     11.70689290	     -3.46467710	      5.27884531	     24.81915195	     -0.96586289	     -3.06157975	     -0.78263354	      1.23973792	     -1.78669220	      3.48400944	      1.82636470	      0.19221887	      5.31336968
      1.04550000	     -6.33787279	     -1.27956669	     -3.10454931	     -0.02985022	      1.00776397	      0.29139737	     -3.23354874	      5.72984156	      1.58749180	    -22.59008449	     11.41703835	     -3.45099851	      5.74462773	     24.76019779	     -0.72224930	     -2.76302464	     -1.31519768	      0.70941212	     -2.31968487	      3.77487739	      1.84469298	     -0.00564567	      5.38947149
